<svg width="127" height="127" viewBox="0 0 127 127" fill="none" xmlns="http://www.w3.org/2000/svg">
<path d="M10.5835 31.75C13.7585 34.3958 16.9335 37.0416 23.8127 37.0416C37.0418 37.0416 37.0418 26.4583 50.271 26.4583C64.0293 26.4583 62.971 37.0416 76.7293 37.0416C89.9585 37.0416 89.9585 26.4583 103.188 26.4583C110.067 26.4583 113.242 29.1041 116.417 31.75M10.5835 63.5C13.7585 66.1458 16.9335 68.7916 23.8127 68.7916C37.0418 68.7916 37.0418 58.2083 50.271 58.2083C64.0293 58.2083 62.971 68.7916 76.7293 68.7916C89.9585 68.7916 89.9585 58.2083 103.188 58.2083C110.067 58.2083 113.242 60.8541 116.417 63.5M10.5835 95.25C13.7585 97.8958 16.9335 100.542 23.8127 100.542C37.0418 100.542 37.0418 89.9583 50.271 89.9583C64.0293 89.9583 62.971 100.542 76.7293 100.542C89.9585 100.542 89.9585 89.9583 103.188 89.9583C110.067 89.9583 113.242 92.6042 116.417 95.25" stroke="white" stroke-width="8" stroke-linecap="round" stroke-linejoin="round"/>
</svg>
