<svg width="1720" height="455" viewBox="0 0 1720 455" fill="none" xmlns="http://www.w3.org/2000/svg">
<path d="M23.31 355V115.24H169.83V160.528H68.598V212.476H149.85V257.764H68.598V355H23.31ZM319.438 359.995C295.462 359.995 274.761 354.778 257.334 344.344C240.018 333.91 226.642 319.313 217.207 300.554C207.883 281.795 203.221 259.984 203.221 235.12C203.221 210.256 207.883 188.444 217.207 169.685C226.642 150.926 240.018 136.33 257.334 125.896C274.761 115.462 295.462 110.245 319.438 110.245C343.414 110.245 364.06 115.462 381.376 125.896C398.803 136.33 412.179 150.926 421.503 169.685C430.938 188.444 435.655 210.256 435.655 235.12C435.655 259.984 430.938 281.795 421.503 300.554C412.179 319.313 398.803 333.91 381.376 344.344C364.06 354.778 343.414 359.995 319.438 359.995ZM319.438 317.371C334.645 317.593 347.299 314.318 357.4 307.547C367.501 300.776 375.049 291.175 380.044 278.743C385.15 266.311 387.703 251.77 387.703 235.12C387.703 218.47 385.15 204.04 380.044 191.83C375.049 179.62 367.501 170.129 357.4 163.358C347.299 156.587 334.645 153.091 319.438 152.869C304.231 152.647 291.577 155.921 281.476 162.692C271.375 169.463 263.772 179.065 258.666 191.497C253.671 203.929 251.173 218.47 251.173 235.12C251.173 251.77 253.671 266.2 258.666 278.41C263.772 290.62 271.375 300.11 281.476 306.881C291.577 313.652 304.231 317.149 319.438 317.371ZM485.543 355V115.24H586.775C589.106 115.24 592.214 115.351 596.099 115.573C600.095 115.684 603.647 116.017 606.755 116.572C621.074 118.792 632.784 123.509 641.886 130.724C651.099 137.939 657.87 147.041 662.199 158.03C666.528 168.908 668.693 181.063 668.693 194.494C668.693 214.585 663.698 231.79 653.708 246.109C643.718 260.317 628.067 269.086 606.755 272.416L586.775 273.748H530.831V355H485.543ZM620.741 355L573.455 257.431L620.075 248.44L672.023 355H620.741ZM530.831 231.457H584.777C587.108 231.457 589.661 231.346 592.436 231.124C595.211 230.902 597.764 230.458 600.095 229.792C606.2 228.127 610.917 225.352 614.247 221.467C617.577 217.471 619.853 213.086 621.074 208.313C622.406 203.429 623.072 198.823 623.072 194.494C623.072 190.165 622.406 185.614 621.074 180.841C619.853 175.957 617.577 171.572 614.247 167.688C610.917 163.691 606.2 160.861 600.095 159.196C597.764 158.53 595.211 158.086 592.436 157.864C589.661 157.642 587.108 157.531 584.777 157.531H530.831V231.457ZM725.277 355V115.24H765.903L845.157 274.414L924.411 115.24H965.037V355H922.746V211.81L853.149 355H837.165L767.568 211.81V355H725.277ZM1028.42 355V115.24H1184.93V157.531H1073.71V208.813H1164.95V251.104H1073.71V312.709H1184.93V355H1028.42ZM1334.31 359.995C1310.33 359.995 1289.63 354.778 1272.2 344.344C1254.89 333.91 1241.51 319.313 1232.08 300.554C1222.75 281.795 1218.09 259.984 1218.09 235.12C1218.09 210.256 1222.75 188.444 1232.08 169.685C1241.51 150.926 1254.89 136.33 1272.2 125.896C1289.63 115.462 1310.33 110.245 1334.31 110.245C1358.28 110.245 1378.93 115.462 1396.25 125.896C1413.67 136.33 1427.05 150.926 1436.37 169.685C1445.81 188.444 1450.52 210.256 1450.52 235.12C1450.52 259.984 1445.81 281.795 1436.37 300.554C1427.05 319.313 1413.67 333.91 1396.25 344.344C1378.93 354.778 1358.28 359.995 1334.31 359.995ZM1334.31 317.371C1349.51 317.593 1362.17 314.318 1372.27 307.547C1382.37 300.776 1389.92 291.175 1394.91 278.743C1400.02 266.311 1402.57 251.77 1402.57 235.12C1402.57 218.47 1400.02 204.04 1394.91 191.83C1389.92 179.62 1382.37 170.129 1372.27 163.358C1362.17 156.587 1349.51 153.091 1334.31 152.869C1319.1 152.647 1306.45 155.921 1296.35 162.692C1286.24 169.463 1278.64 179.065 1273.54 191.497C1268.54 203.929 1266.04 218.47 1266.04 235.12C1266.04 251.77 1268.54 266.2 1273.54 278.41C1278.64 290.62 1286.24 300.11 1296.35 306.881C1306.45 313.652 1319.1 317.149 1334.31 317.371ZM1500.41 355V115.24H1546.37L1650.6 275.08V115.24H1696.55V355H1650.6L1546.37 195.16V355H1500.41Z" fill="#281101"/>
<path d="M193.44 99.5312L456.566 330.359" stroke="#FBF9ED" stroke-width="22"/>
<line x1="1153.01" y1="61.5257" x2="1559.01" y2="397.526" stroke="#FBF9ED" stroke-width="22"/>
</svg>
