<svg width="1682" height="353" viewBox="0 0 1682 353" fill="none" xmlns="http://www.w3.org/2000/svg">
<path d="M1481.1 301.949V62.1887H1527.06L1631.29 222.029V62.1887H1677.24V301.949H1631.29L1527.06 142.109V301.949H1481.1Z" fill="#281101"/>
<path d="M1315 306.944C1291.02 306.944 1270.32 301.727 1252.89 291.293C1235.58 280.859 1222.2 266.262 1212.77 247.503C1203.44 228.744 1198.78 206.933 1198.78 182.069C1198.78 157.205 1203.44 135.393 1212.77 116.634C1222.2 97.8752 1235.58 83.2787 1252.89 72.8447C1270.32 62.4107 1291.02 57.1937 1315 57.1937C1338.97 57.1937 1359.62 62.4107 1376.94 72.8447C1394.36 83.2787 1407.74 97.8752 1417.06 116.634C1426.5 135.393 1431.22 157.205 1431.22 182.069C1431.22 206.933 1426.5 228.744 1417.06 247.503C1407.74 266.262 1394.36 280.859 1376.94 291.293C1359.62 301.727 1338.97 306.944 1315 306.944ZM1315 264.32C1330.21 264.542 1342.86 261.267 1352.96 254.496C1363.06 247.725 1370.61 238.124 1375.6 225.692C1380.71 213.26 1383.26 198.719 1383.26 182.069C1383.26 165.419 1380.71 150.989 1375.6 138.779C1370.61 126.569 1363.06 117.078 1352.96 110.307C1342.86 103.536 1330.21 100.04 1315 99.8177C1299.79 99.5957 1287.14 102.87 1277.04 109.641C1266.94 116.412 1259.33 126.014 1254.23 138.446C1249.23 150.878 1246.73 165.419 1246.73 182.069C1246.73 198.719 1249.23 213.149 1254.23 225.359C1259.33 237.569 1266.94 247.059 1277.04 253.83C1287.14 260.601 1299.79 264.098 1315 264.32Z" fill="#281101"/>
<path d="M1009.11 301.949V62.1887H1165.62V104.48H1054.4V155.762H1145.64V198.053H1054.4V259.658H1165.62V301.949H1009.11Z" fill="#281101"/>
<path d="M705.967 301.949V62.1887H746.593L825.847 221.363L905.101 62.1887H945.727V301.949H903.436V158.759L833.839 301.949H817.855L748.258 158.759V301.949H705.967Z" fill="#281101"/>
<path d="M466.233 301.949V62.1887H567.465C569.796 62.1887 572.904 62.2997 576.789 62.5217C580.785 62.6327 584.337 62.9657 587.445 63.5207C601.764 65.7407 613.475 70.4582 622.577 77.6732C631.79 84.8882 638.561 93.9902 642.89 104.979C647.219 115.857 649.383 128.012 649.383 141.443C649.383 161.534 644.388 178.739 634.398 193.058C624.408 207.266 608.757 216.035 587.445 219.365L567.465 220.697H511.521V301.949H466.233ZM601.431 301.949L554.145 204.38L600.765 195.389L652.713 301.949H601.431ZM511.521 178.406H565.467C567.798 178.406 570.351 178.295 573.126 178.073C575.901 177.851 578.454 177.407 580.785 176.741C586.89 175.076 591.608 172.301 594.938 168.416C598.268 164.42 600.543 160.035 601.764 155.262C603.096 150.378 603.762 145.772 603.762 141.443C603.762 137.114 603.096 132.563 601.764 127.79C600.543 122.906 598.268 118.521 594.938 114.636C591.608 110.64 586.89 107.81 580.785 106.145C578.454 105.479 575.901 105.035 573.126 104.813C570.351 104.591 567.798 104.48 565.467 104.48H511.521V178.406Z" fill="#281101"/>
<path d="M300.128 306.944C276.152 306.944 255.451 301.727 238.024 291.293C220.708 280.859 207.332 266.262 197.897 247.503C188.573 228.744 183.911 206.933 183.911 182.069C183.911 157.205 188.573 135.393 197.897 116.634C207.332 97.8752 220.708 83.2787 238.024 72.8447C255.451 62.4107 276.152 57.1937 300.128 57.1937C324.104 57.1937 344.75 62.4107 362.066 72.8447C379.493 83.2787 392.869 97.8752 402.193 116.634C411.628 135.393 416.345 157.205 416.345 182.069C416.345 206.933 411.628 228.744 402.193 247.503C392.869 266.262 379.493 280.859 362.066 291.293C344.75 301.727 324.104 306.944 300.128 306.944ZM300.128 264.32C315.335 264.542 327.989 261.267 338.09 254.496C348.191 247.725 355.739 238.124 360.734 225.692C365.84 213.26 368.393 198.719 368.393 182.069C368.393 165.419 365.84 150.989 360.734 138.779C355.739 126.569 348.191 117.078 338.09 110.307C327.989 103.536 315.335 100.04 300.128 99.8177C284.921 99.5957 272.267 102.87 262.166 109.641C252.065 116.412 244.462 126.014 239.356 138.446C234.361 150.878 231.863 165.419 231.863 182.069C231.863 198.719 234.361 213.149 239.356 225.359C244.462 237.569 252.065 247.059 262.166 253.83C272.267 260.601 284.921 264.098 300.128 264.32Z" fill="#281101"/>
<path d="M4.00043 301.949V62.1887H150.52V107.477H49.2884V159.425H130.54V204.713H49.2884V301.949H4.00043Z" fill="#281101"/>
<path d="M1677.24 62.1887H1631.29V222.029L1527.06 62.1887H1481.1V301.949H1527.06V142.109L1631.29 301.949H1677.24V62.1887ZM1681.24 305.949H1629.12L1531.06 155.566V305.949H1477.1V58.1889H1529.22L1627.29 208.571V58.1889H1681.24V305.949Z" fill="#281101"/>
<path d="M1431.22 182.069C1431.22 157.205 1426.5 135.393 1417.06 116.634C1407.74 97.8752 1394.36 83.2787 1376.94 72.8447C1359.89 62.5739 1339.62 57.3581 1316.12 57.1977L1315 57.1937C1291.02 57.1937 1270.32 62.4107 1252.89 72.8447L1252.08 73.3364C1235.16 83.7354 1222.05 98.1681 1212.77 116.634L1212.33 117.516C1203.3 136.076 1198.78 157.593 1198.78 182.069L1198.79 184.391C1199.08 208.293 1203.73 229.33 1212.77 247.503C1222.2 266.262 1235.58 280.859 1252.89 291.293C1270.05 301.564 1290.38 306.779 1313.88 306.94L1315 306.944C1338.97 306.944 1359.62 301.727 1376.94 291.293C1394.36 280.859 1407.74 266.262 1417.06 247.503C1426.2 229.33 1430.92 208.293 1431.2 184.391L1431.22 182.069ZM1379.26 182.069C1379.26 165.817 1376.77 151.934 1371.91 140.322L1371.91 140.308L1371.9 140.293C1367.18 128.754 1360.12 119.92 1350.73 113.629C1341.42 107.386 1329.57 104.03 1314.94 103.817C1300.34 103.604 1288.54 106.747 1279.26 112.963C1269.9 119.242 1262.77 128.172 1257.94 139.937L1257.5 141.055C1253.02 152.673 1250.73 166.318 1250.73 182.069C1250.73 198.317 1253.17 212.2 1257.92 223.816L1258.38 224.891C1263.19 235.919 1270.17 244.408 1279.26 250.507C1288.58 256.751 1300.43 260.106 1315.06 260.32C1329.66 260.533 1341.46 257.389 1350.73 251.173C1360.1 244.895 1367.17 235.966 1371.89 224.201L1371.9 224.186L1371.9 224.172C1376.77 212.323 1379.26 198.318 1379.26 182.069ZM1383.26 183.623C1383.1 199.625 1380.55 213.648 1375.6 225.692L1375.13 226.849C1370.13 238.721 1362.75 247.937 1352.96 254.496L1352.01 255.121C1342.39 261.264 1330.52 264.334 1316.42 264.331L1315 264.32C1300.27 264.105 1287.93 260.817 1277.99 254.456L1277.04 253.83C1266.94 247.059 1259.33 237.569 1254.23 225.359C1249.39 213.53 1246.89 199.619 1246.74 183.623L1246.73 182.069C1246.73 165.419 1249.23 150.878 1254.23 138.446C1259.17 126.402 1266.46 117.015 1276.1 110.285L1277.04 109.641C1287.14 102.87 1299.79 99.5957 1315 99.8177C1330.21 100.04 1342.86 103.536 1352.96 110.307C1363.06 117.078 1370.61 126.569 1375.6 138.779C1380.71 150.989 1383.26 165.419 1383.26 182.069L1383.26 183.623ZM1435.21 182.069C1435.21 207.435 1430.4 229.876 1420.64 249.283C1410.99 268.704 1397.1 283.885 1378.99 294.725L1378.99 294.724C1360.95 305.594 1339.56 310.944 1315 310.944C1290.43 310.944 1268.99 305.593 1250.84 294.725L1250.83 294.719C1232.84 283.88 1218.95 268.706 1209.19 249.3L1209.19 249.292L1209.19 249.284C1199.54 229.877 1194.78 207.436 1194.78 182.069C1194.78 156.702 1199.54 134.26 1209.19 114.854L1209.19 114.845L1209.19 114.837C1218.95 95.4313 1232.84 80.2576 1250.83 69.4184L1250.84 69.4125C1268.99 58.5445 1290.43 53.1938 1315 53.1938C1339.56 53.1938 1360.95 58.5425 1378.99 69.4125C1397.1 80.2524 1410.99 95.4324 1420.64 114.854C1430.4 134.261 1435.21 156.702 1435.21 182.069Z" fill="#281101"/>
<path d="M1165.62 259.658H1054.4V198.053H1145.64V155.762H1054.4V104.48H1165.62V62.1887H1009.11V301.949H1165.62V259.658ZM1169.62 108.48H1058.4V151.762H1149.64V202.052H1058.4V255.658H1169.62V305.949H1005.11V58.1889H1169.62V108.48Z" fill="#281101"/>
<path d="M945.727 62.1887H905.101L825.847 221.363L746.593 62.1887H705.967V301.949H748.258V158.759L817.855 301.949H833.839L903.436 158.759V301.949H945.727V62.1887ZM949.727 305.949H899.437V176.136L836.343 305.949H815.352L752.258 176.138V305.949H701.967V58.1889H749.069L825.847 212.388L902.624 58.1889H949.727V305.949Z" fill="#281101"/>
<path d="M649.383 141.443C649.383 128.012 647.219 115.857 642.89 104.979C638.561 93.9902 631.79 84.8882 622.577 77.6732C613.475 70.4582 601.764 65.7407 587.445 63.5207C584.726 63.035 581.666 62.7194 578.267 62.5737L576.789 62.5217C573.39 62.3274 570.586 62.2181 568.376 62.1938L567.465 62.1887L567.465 58.1889C569.897 58.1889 573.077 58.3025 576.976 58.5248C581.053 58.641 584.753 58.9837 588.057 59.5678C602.883 61.8665 615.282 66.793 625.043 74.5239L625.952 75.2475C635.266 82.7866 642.162 92.2245 646.606 103.5L647.025 104.574C651.286 115.706 653.383 128.012 653.383 141.443C653.383 162.225 648.205 180.258 637.679 195.346L637.675 195.352L637.67 195.359C631.794 203.715 624.133 210.252 614.789 215.028L659.113 305.949H598.925L559.547 224.697H515.521V305.949H462.233V58.1889H567.465L567.465 62.1887H466.233V301.949H511.521V220.697L562.054 220.697L601.431 301.949H652.713L609.423 213.151C619.64 208.642 627.808 202.167 633.926 193.72L634.398 193.058C644.076 179.186 649.066 162.606 649.368 143.318L649.383 141.443ZM599.762 141.443C599.762 137.525 599.159 133.337 597.911 128.865L597.896 128.813L597.884 128.76C596.816 124.489 594.833 120.661 591.9 117.24L591.883 117.218L591.864 117.197C589.163 113.956 585.221 111.5 579.732 110.003L579.709 109.998L579.687 109.991C577.644 109.407 575.356 109.004 572.807 108.8C570.118 108.585 567.673 108.48 565.467 108.48H515.521V174.406H565.467L565.467 178.406H511.521V104.48H565.467C567.798 104.48 570.351 104.591 573.126 104.813C575.901 105.035 578.454 105.479 580.785 106.145C586.89 107.81 591.608 110.64 594.938 114.636C598.268 118.521 600.543 122.906 601.764 127.79C603.096 132.563 603.762 137.114 603.762 141.443L603.754 142.257C603.676 146.348 603.013 150.683 601.764 155.262C600.543 160.035 598.268 164.42 594.938 168.416C591.608 172.301 586.89 175.076 580.785 176.741L579.9 176.98C577.812 177.514 575.554 177.878 573.126 178.073L572.096 178.151C569.716 178.321 567.507 178.406 565.467 178.406L565.467 174.406C567.673 174.406 570.118 174.3 572.807 174.085C575.356 173.881 577.644 173.478 579.687 172.895L579.709 172.888L579.732 172.881C585.231 171.382 589.176 168.974 591.873 165.842C594.839 162.28 596.824 158.431 597.889 154.271L597.896 154.241L597.905 154.209C599.159 149.612 599.762 145.362 599.762 141.443Z" fill="#281101"/>
<path d="M416.345 182.069C416.345 157.205 411.628 135.393 402.193 116.634C392.869 97.8752 379.493 83.2787 362.066 72.8447C345.021 62.5738 324.749 57.3582 301.25 57.1977L300.128 57.1937C276.152 57.1937 255.451 62.4107 238.024 72.8447L237.215 73.3364C220.291 83.7354 207.185 98.1683 197.897 116.634L197.464 117.516C188.429 136.076 183.911 157.593 183.911 182.069L183.925 184.391C184.207 208.293 188.865 229.33 197.897 247.503C207.332 266.262 220.708 280.859 238.024 291.293C255.179 301.564 275.506 306.779 299.007 306.94L300.128 306.944C324.104 306.944 344.75 301.727 362.066 291.293C379.493 280.859 392.869 266.262 402.193 247.503C411.333 229.33 416.046 208.293 416.332 184.391L416.345 182.069ZM364.394 182.069C364.394 165.817 361.9 151.934 357.044 140.322L357.038 140.308L357.032 140.293C352.312 128.754 345.248 119.92 335.863 113.629C326.549 107.385 314.698 104.03 300.07 103.817C285.471 103.604 273.667 106.747 264.394 112.963C255.028 119.242 247.905 128.172 243.067 139.937L242.628 141.055C238.153 152.673 235.863 166.318 235.863 182.069C235.863 198.33 238.304 212.223 243.059 223.844C247.89 235.383 255.01 244.217 264.394 250.507C273.708 256.751 285.559 260.106 300.187 260.32C314.785 260.533 326.59 257.389 335.863 251.173C345.229 244.895 352.295 235.966 357.022 224.201L357.028 224.186L357.034 224.172C361.901 212.323 364.394 198.318 364.394 182.069ZM368.386 183.623C368.231 199.625 365.681 213.648 360.734 225.692L360.259 226.849C355.265 238.721 347.876 247.937 338.09 254.496L337.136 255.121C327.517 261.263 315.654 264.334 301.547 264.331L300.128 264.32C285.397 264.105 273.061 260.817 263.121 254.456L262.166 253.83C252.065 247.059 244.462 237.569 239.356 225.359C234.517 213.53 232.022 199.619 231.871 183.623L231.863 182.069C231.863 165.419 234.361 150.878 239.356 138.446C244.462 126.014 252.065 116.412 262.166 109.641C272.267 102.87 284.921 99.5957 300.128 99.8177C315.335 100.04 327.989 103.536 338.09 110.307C348.191 117.078 355.739 126.569 360.734 138.779C365.84 150.989 368.393 165.419 368.393 182.069L368.386 183.623ZM420.346 182.069C420.346 207.435 415.531 229.876 405.774 249.283C396.123 268.701 382.23 283.879 364.13 294.718L364.131 294.719C346.085 305.593 324.696 310.944 300.129 310.944C275.561 310.944 254.121 305.593 235.969 294.725L235.96 294.719C217.972 283.88 204.085 268.706 194.324 249.3L194.319 249.292L194.315 249.284C184.67 229.877 179.911 207.436 179.911 182.069C179.911 156.702 184.67 134.26 194.315 114.854L194.319 114.845L194.324 114.837C204.085 95.4313 217.972 80.2576 235.96 69.4184L235.969 69.4125C254.121 58.5445 275.561 53.1938 300.129 53.1938C324.691 53.1939 346.077 58.5424 364.121 69.4125C382.226 80.2524 396.122 95.4324 405.775 114.854C415.532 134.261 420.346 156.702 420.346 182.069Z" fill="#281101"/>
<path d="M130.54 204.713V159.425H49.2884V107.477H150.52V62.1887H4.00043V301.949H49.2884V204.713H130.54ZM154.521 111.477H53.2881V155.424H134.54V208.712H53.2881V305.949H0V58.1889H154.521V111.477Z" fill="#281101"/>
<path d="M445.509 270.018L429.002 284.598L165.876 53.7698L182.385 39.1895L445.509 270.018Z" fill="#FBF9ED"/>
<path d="M1546.72 336L1532.69 352.949L1126.69 16.9487L1140.72 0L1546.72 336Z" fill="#FBF9ED"/>
</svg>
