<svg width="1720" height="455" viewBox="0 0 1720 455" fill="none" xmlns="http://www.w3.org/2000/svg">
<mask id="path-1-outside-1_131_46" maskUnits="userSpaceOnUse" x="19" y="106" width="1682" height="258" fill="black">
<rect fill="white" x="19" y="106" width="1682" height="258"/>
<path d="M23.31 355V115.24H169.83V160.528H68.598V212.476H149.85V257.764H68.598V355H23.31ZM319.438 359.995C295.462 359.995 274.761 354.778 257.334 344.344C240.018 333.91 226.642 319.313 217.207 300.554C207.883 281.795 203.221 259.984 203.221 235.12C203.221 210.256 207.883 188.444 217.207 169.685C226.642 150.926 240.018 136.33 257.334 125.896C274.761 115.462 295.462 110.245 319.438 110.245C343.414 110.245 364.06 115.462 381.376 125.896C398.803 136.33 412.179 150.926 421.503 169.685C430.938 188.444 435.655 210.256 435.655 235.12C435.655 259.984 430.938 281.795 421.503 300.554C412.179 319.313 398.803 333.91 381.376 344.344C364.06 354.778 343.414 359.995 319.438 359.995ZM319.438 317.371C334.645 317.593 347.299 314.318 357.4 307.547C367.501 300.776 375.049 291.175 380.044 278.743C385.15 266.311 387.703 251.77 387.703 235.12C387.703 218.47 385.15 204.04 380.044 191.83C375.049 179.62 367.501 170.129 357.4 163.358C347.299 156.587 334.645 153.091 319.438 152.869C304.231 152.647 291.577 155.921 281.476 162.692C271.375 169.463 263.772 179.065 258.666 191.497C253.671 203.929 251.173 218.47 251.173 235.12C251.173 251.77 253.671 266.2 258.666 278.41C263.772 290.62 271.375 300.11 281.476 306.881C291.577 313.652 304.231 317.149 319.438 317.371ZM485.543 355V115.24H586.775C589.106 115.24 592.214 115.351 596.099 115.573C600.095 115.684 603.647 116.017 606.755 116.572C621.074 118.792 632.784 123.509 641.886 130.724C651.099 137.939 657.87 147.041 662.199 158.03C666.528 168.908 668.693 181.063 668.693 194.494C668.693 214.585 663.698 231.79 653.708 246.109C643.718 260.317 628.067 269.086 606.755 272.416L586.775 273.748H530.831V355H485.543ZM620.741 355L573.455 257.431L620.075 248.44L672.023 355H620.741ZM530.831 231.457H584.777C587.108 231.457 589.661 231.346 592.436 231.124C595.211 230.902 597.764 230.458 600.095 229.792C606.2 228.127 610.917 225.352 614.247 221.467C617.577 217.471 619.853 213.086 621.074 208.313C622.406 203.429 623.072 198.823 623.072 194.494C623.072 190.165 622.406 185.614 621.074 180.841C619.853 175.957 617.577 171.572 614.247 167.688C610.917 163.691 606.2 160.861 600.095 159.196C597.764 158.53 595.211 158.086 592.436 157.864C589.661 157.642 587.108 157.531 584.777 157.531H530.831V231.457ZM725.277 355V115.24H765.903L845.157 274.414L924.411 115.24H965.037V355H922.746V211.81L853.149 355H837.165L767.568 211.81V355H725.277ZM1028.42 355V115.24H1184.93V157.531H1073.71V208.813H1164.95V251.104H1073.71V312.709H1184.93V355H1028.42ZM1334.31 359.995C1310.33 359.995 1289.63 354.778 1272.2 344.344C1254.89 333.91 1241.51 319.313 1232.08 300.554C1222.75 281.795 1218.09 259.984 1218.09 235.12C1218.09 210.256 1222.75 188.444 1232.08 169.685C1241.51 150.926 1254.89 136.33 1272.2 125.896C1289.63 115.462 1310.33 110.245 1334.31 110.245C1358.28 110.245 1378.93 115.462 1396.25 125.896C1413.67 136.33 1427.05 150.926 1436.37 169.685C1445.81 188.444 1450.52 210.256 1450.52 235.12C1450.52 259.984 1445.81 281.795 1436.37 300.554C1427.05 319.313 1413.67 333.91 1396.25 344.344C1378.93 354.778 1358.28 359.995 1334.31 359.995ZM1334.31 317.371C1349.51 317.593 1362.17 314.318 1372.27 307.547C1382.37 300.776 1389.92 291.175 1394.91 278.743C1400.02 266.311 1402.57 251.77 1402.57 235.12C1402.57 218.47 1400.02 204.04 1394.91 191.83C1389.92 179.62 1382.37 170.129 1372.27 163.358C1362.17 156.587 1349.51 153.091 1334.31 152.869C1319.1 152.647 1306.45 155.921 1296.35 162.692C1286.24 169.463 1278.64 179.065 1273.54 191.497C1268.54 203.929 1266.04 218.47 1266.04 235.12C1266.04 251.77 1268.54 266.2 1273.54 278.41C1278.64 290.62 1286.24 300.11 1296.35 306.881C1306.45 313.652 1319.1 317.149 1334.31 317.371ZM1500.41 355V115.24H1546.37L1650.6 275.08V115.24H1696.55V355H1650.6L1546.37 195.16V355H1500.41Z"/>
</mask>
<path d="M23.31 355V115.24H169.83V160.528H68.598V212.476H149.85V257.764H68.598V355H23.31ZM319.438 359.995C295.462 359.995 274.761 354.778 257.334 344.344C240.018 333.91 226.642 319.313 217.207 300.554C207.883 281.795 203.221 259.984 203.221 235.12C203.221 210.256 207.883 188.444 217.207 169.685C226.642 150.926 240.018 136.33 257.334 125.896C274.761 115.462 295.462 110.245 319.438 110.245C343.414 110.245 364.06 115.462 381.376 125.896C398.803 136.33 412.179 150.926 421.503 169.685C430.938 188.444 435.655 210.256 435.655 235.12C435.655 259.984 430.938 281.795 421.503 300.554C412.179 319.313 398.803 333.91 381.376 344.344C364.06 354.778 343.414 359.995 319.438 359.995ZM319.438 317.371C334.645 317.593 347.299 314.318 357.4 307.547C367.501 300.776 375.049 291.175 380.044 278.743C385.15 266.311 387.703 251.77 387.703 235.12C387.703 218.47 385.15 204.04 380.044 191.83C375.049 179.62 367.501 170.129 357.4 163.358C347.299 156.587 334.645 153.091 319.438 152.869C304.231 152.647 291.577 155.921 281.476 162.692C271.375 169.463 263.772 179.065 258.666 191.497C253.671 203.929 251.173 218.47 251.173 235.12C251.173 251.77 253.671 266.2 258.666 278.41C263.772 290.62 271.375 300.11 281.476 306.881C291.577 313.652 304.231 317.149 319.438 317.371ZM485.543 355V115.24H586.775C589.106 115.24 592.214 115.351 596.099 115.573C600.095 115.684 603.647 116.017 606.755 116.572C621.074 118.792 632.784 123.509 641.886 130.724C651.099 137.939 657.87 147.041 662.199 158.03C666.528 168.908 668.693 181.063 668.693 194.494C668.693 214.585 663.698 231.79 653.708 246.109C643.718 260.317 628.067 269.086 606.755 272.416L586.775 273.748H530.831V355H485.543ZM620.741 355L573.455 257.431L620.075 248.44L672.023 355H620.741ZM530.831 231.457H584.777C587.108 231.457 589.661 231.346 592.436 231.124C595.211 230.902 597.764 230.458 600.095 229.792C606.2 228.127 610.917 225.352 614.247 221.467C617.577 217.471 619.853 213.086 621.074 208.313C622.406 203.429 623.072 198.823 623.072 194.494C623.072 190.165 622.406 185.614 621.074 180.841C619.853 175.957 617.577 171.572 614.247 167.688C610.917 163.691 606.2 160.861 600.095 159.196C597.764 158.53 595.211 158.086 592.436 157.864C589.661 157.642 587.108 157.531 584.777 157.531H530.831V231.457ZM725.277 355V115.24H765.903L845.157 274.414L924.411 115.24H965.037V355H922.746V211.81L853.149 355H837.165L767.568 211.81V355H725.277ZM1028.42 355V115.24H1184.93V157.531H1073.71V208.813H1164.95V251.104H1073.71V312.709H1184.93V355H1028.42ZM1334.31 359.995C1310.33 359.995 1289.63 354.778 1272.2 344.344C1254.89 333.91 1241.51 319.313 1232.08 300.554C1222.75 281.795 1218.09 259.984 1218.09 235.12C1218.09 210.256 1222.75 188.444 1232.08 169.685C1241.51 150.926 1254.89 136.33 1272.2 125.896C1289.63 115.462 1310.33 110.245 1334.31 110.245C1358.28 110.245 1378.93 115.462 1396.25 125.896C1413.67 136.33 1427.05 150.926 1436.37 169.685C1445.81 188.444 1450.52 210.256 1450.52 235.12C1450.52 259.984 1445.81 281.795 1436.37 300.554C1427.05 319.313 1413.67 333.91 1396.25 344.344C1378.93 354.778 1358.28 359.995 1334.31 359.995ZM1334.31 317.371C1349.51 317.593 1362.17 314.318 1372.27 307.547C1382.37 300.776 1389.92 291.175 1394.91 278.743C1400.02 266.311 1402.57 251.77 1402.57 235.12C1402.57 218.47 1400.02 204.04 1394.91 191.83C1389.92 179.62 1382.37 170.129 1372.27 163.358C1362.17 156.587 1349.51 153.091 1334.31 152.869C1319.1 152.647 1306.45 155.921 1296.35 162.692C1286.24 169.463 1278.64 179.065 1273.54 191.497C1268.54 203.929 1266.04 218.47 1266.04 235.12C1266.04 251.77 1268.54 266.2 1273.54 278.41C1278.64 290.62 1286.24 300.11 1296.35 306.881C1306.45 313.652 1319.1 317.149 1334.31 317.371ZM1500.41 355V115.24H1546.37L1650.6 275.08V115.24H1696.55V355H1650.6L1546.37 195.16V355H1500.41Z" fill="#281101"/>
<path d="M23.31 355H19.31V359H23.31V355ZM23.31 115.24V111.24H19.31V115.24H23.31ZM169.83 115.24H173.83V111.24H169.83V115.24ZM169.83 160.528V164.528H173.83V160.528H169.83ZM68.598 160.528V156.528H64.598V160.528H68.598ZM68.598 212.476H64.598V216.476H68.598V212.476ZM149.85 212.476H153.85V208.476H149.85V212.476ZM149.85 257.764V261.764H153.85V257.764H149.85ZM68.598 257.764V253.764H64.598V257.764H68.598ZM68.598 355V359H72.598V355H68.598ZM23.31 355H27.31V115.24H23.31H19.31V355H23.31ZM23.31 115.24V119.24H169.83V115.24V111.24H23.31V115.24ZM169.83 115.24H165.83V160.528H169.83H173.83V115.24H169.83ZM169.83 160.528V156.528H68.598V160.528V164.528H169.83V160.528ZM68.598 160.528H64.598V212.476H68.598H72.598V160.528H68.598ZM68.598 212.476V216.476H149.85V212.476V208.476H68.598V212.476ZM149.85 212.476H145.85V257.764H149.85H153.85V212.476H149.85ZM149.85 257.764V253.764H68.598V257.764V261.764H149.85V257.764ZM68.598 257.764H64.598V355H68.598H72.598V257.764H68.598ZM68.598 355V351H23.31V355V359H68.598V355ZM257.334 344.344L255.269 347.77L255.279 347.776L257.334 344.344ZM217.207 300.554L213.625 302.335L213.629 302.343L213.634 302.352L217.207 300.554ZM217.207 169.685L213.634 167.888L213.629 167.897L213.625 167.905L217.207 169.685ZM257.334 125.896L255.279 122.464L255.269 122.47L257.334 125.896ZM381.376 125.896L379.312 129.322L379.321 129.328L381.376 125.896ZM421.503 169.685L417.921 171.466L417.925 171.474L417.929 171.483L421.503 169.685ZM421.503 300.554L417.929 298.757L417.925 298.766L417.921 298.774L421.503 300.554ZM381.376 344.344L379.321 340.912L379.312 340.918L381.376 344.344ZM319.438 317.371L319.38 321.371L319.438 317.371ZM357.4 307.547L359.627 310.87L359.627 310.87L357.4 307.547ZM380.044 278.743L376.344 277.223L376.338 277.237L376.332 277.252L380.044 278.743ZM380.044 191.83L376.342 193.345L376.348 193.359L376.354 193.373L380.044 191.83ZM357.4 163.358L359.627 160.036L359.627 160.036L357.4 163.358ZM319.438 152.869L319.496 148.869L319.496 148.869L319.438 152.869ZM258.666 191.497L254.965 189.977L254.96 189.991L254.954 190.006L258.666 191.497ZM258.666 278.41L254.963 279.925L254.969 279.939L254.975 279.953L258.666 278.41ZM281.476 306.881L279.249 310.204L279.249 310.204L281.476 306.881ZM319.438 359.995V355.995C296.054 355.995 276.09 350.912 259.388 340.912L257.334 344.344L255.279 347.776C273.431 358.644 294.87 363.995 319.438 363.995V359.995ZM257.334 344.344L259.398 340.918C242.754 330.889 229.89 316.869 220.781 298.757L217.207 300.554L213.634 302.352C223.394 321.758 237.281 336.931 255.269 347.77L257.334 344.344ZM217.207 300.554L220.789 298.774C211.787 280.663 207.221 259.481 207.221 235.12H203.221H199.221C199.221 260.487 203.979 282.928 213.625 302.335L217.207 300.554ZM203.221 235.12H207.221C207.221 210.759 211.787 189.577 220.789 171.466L217.207 169.685L213.625 167.905C203.979 187.312 199.221 209.753 199.221 235.12H203.221ZM217.207 169.685L220.781 171.483C229.89 153.371 242.754 139.351 259.398 129.322L257.334 125.896L255.269 122.47C237.281 133.309 223.394 148.482 213.634 167.888L217.207 169.685ZM257.334 125.896L259.388 129.328C276.09 119.328 296.054 114.245 319.438 114.245V110.245V106.245C294.87 106.245 273.431 111.596 255.279 122.464L257.334 125.896ZM319.438 110.245V114.245C342.823 114.245 362.726 119.328 379.312 129.322L381.376 125.896L383.44 122.47C365.394 111.596 344.005 106.245 319.438 106.245V110.245ZM381.376 125.896L379.321 129.328C396.07 139.356 408.926 153.369 417.921 171.466L421.503 169.685L425.084 167.905C415.431 148.484 401.536 133.304 383.431 122.464L381.376 125.896ZM421.503 169.685L417.929 171.483C427.036 189.59 431.655 210.766 431.655 235.12H435.655H439.655C439.655 209.746 434.839 187.299 425.076 167.888L421.503 169.685ZM435.655 235.12H431.655C431.655 259.474 427.036 280.65 417.929 298.757L421.503 300.554L425.076 302.352C434.839 282.941 439.655 260.494 439.655 235.12H435.655ZM421.503 300.554L417.921 298.774C408.926 316.871 396.07 330.884 379.321 340.912L381.376 344.344L383.431 347.776C401.536 336.936 415.431 321.756 425.084 302.335L421.503 300.554ZM381.376 344.344L379.312 340.918C362.726 350.912 342.823 355.995 319.438 355.995V359.995V363.995C344.005 363.995 365.394 358.644 383.44 347.77L381.376 344.344ZM319.438 317.371L319.38 321.371C335.195 321.601 348.699 318.196 359.627 310.87L357.4 307.547L355.173 304.225C345.899 310.441 334.095 313.585 319.496 313.371L319.438 317.371ZM357.4 307.547L359.627 310.87C370.463 303.606 378.493 293.333 383.756 280.234L380.044 278.743L376.332 277.252C371.605 289.017 364.539 297.947 355.173 304.225L357.4 307.547ZM380.044 278.743L383.744 280.263C389.089 267.248 391.703 252.171 391.703 235.12H387.703H383.703C383.703 251.369 381.211 265.374 376.344 277.223L380.044 278.743ZM387.703 235.12H391.703C391.703 218.072 389.09 203.094 383.734 190.287L380.044 191.83L376.354 193.373C381.21 204.986 383.703 218.868 383.703 235.12H387.703ZM380.044 191.83L383.746 190.315C378.477 177.435 370.445 167.287 359.627 160.036L357.4 163.358L355.173 166.681C364.557 172.972 371.621 181.805 376.342 193.345L380.044 191.83ZM357.4 163.358L359.627 160.036C348.74 152.738 335.283 149.1 319.496 148.869L319.438 152.869L319.38 156.869C334.007 157.082 345.858 160.437 355.173 166.681L357.4 163.358ZM319.438 152.869L319.496 148.869C303.681 148.639 290.177 152.044 279.249 159.37L281.476 162.692L283.703 166.015C292.977 159.799 304.781 156.655 319.38 156.869L319.438 152.869ZM281.476 162.692L279.249 159.37C268.42 166.629 260.34 176.892 254.965 189.977L258.666 191.497L262.366 193.017C267.203 181.238 274.33 172.298 283.703 166.015L281.476 162.692ZM258.666 191.497L254.954 190.006C249.728 203.012 247.173 218.079 247.173 235.12H251.173H255.173C255.173 218.861 257.613 204.846 262.377 192.988L258.666 191.497ZM251.173 235.12H247.173C247.173 252.158 249.728 267.126 254.963 279.925L258.666 278.41L262.368 276.895C257.614 265.274 255.173 251.382 255.173 235.12H251.173ZM258.666 278.41L254.975 279.953C260.356 292.82 268.439 302.958 279.249 310.204L281.476 306.881L283.703 303.559C274.311 297.263 267.187 288.42 262.356 276.867L258.666 278.41ZM281.476 306.881L279.249 310.204C290.136 317.502 303.593 321.14 319.38 321.371L319.438 317.371L319.496 313.371C304.869 313.158 293.018 309.803 283.703 303.559L281.476 306.881ZM485.543 355H481.543V359H485.543V355ZM485.543 115.24V111.24H481.543V115.24H485.543ZM596.099 115.573L595.87 119.566L595.929 119.57L595.988 119.571L596.099 115.573ZM606.755 116.572L606.051 120.51L606.097 120.518L606.142 120.525L606.755 116.572ZM641.886 130.724L639.401 133.859L639.411 133.866L639.42 133.874L641.886 130.724ZM662.199 158.03L658.477 159.497L658.483 159.51L662.199 158.03ZM653.708 246.109L656.98 248.41L656.984 248.404L656.988 248.398L653.708 246.109ZM606.755 272.416L607.021 276.407L607.197 276.395L607.372 276.368L606.755 272.416ZM586.775 273.748V277.748H586.908L587.041 277.739L586.775 273.748ZM530.831 273.748V269.748H526.831V273.748H530.831ZM530.831 355V359H534.831V355H530.831ZM620.741 355L617.141 356.744L618.234 359H620.741V355ZM573.455 257.431L572.697 253.503L567.584 254.489L569.855 259.175L573.455 257.431ZM620.075 248.44L623.67 246.687L622.327 243.932L619.317 244.512L620.075 248.44ZM672.023 355V359H678.423L675.618 353.247L672.023 355ZM530.831 231.457H526.831V235.457H530.831V231.457ZM592.436 231.124L592.755 235.111L592.755 235.111L592.436 231.124ZM600.095 229.792L599.042 225.933L599.019 225.939L598.996 225.946L600.095 229.792ZM614.247 221.467L617.284 224.07L617.302 224.049L617.32 224.028L614.247 221.467ZM621.074 208.313L617.215 207.261L617.206 207.292L617.198 207.322L621.074 208.313ZM621.074 180.841L617.193 181.811L617.206 181.864L617.221 181.916L621.074 180.841ZM614.247 167.688L611.174 170.248L611.192 170.27L611.21 170.291L614.247 167.688ZM600.095 159.196L598.996 163.042L599.019 163.049L599.042 163.055L600.095 159.196ZM592.436 157.864L592.117 161.851L592.117 161.851L592.436 157.864ZM530.831 157.531V153.531H526.831V157.531H530.831ZM485.543 355H489.543V115.24H485.543H481.543V355H485.543ZM485.543 115.24V119.24H586.775V115.24V111.24H485.543V115.24ZM586.775 115.24V119.24C588.996 119.24 592.018 119.346 595.87 119.566L596.099 115.573L596.327 111.58C592.409 111.356 589.215 111.24 586.775 111.24V115.24ZM596.099 115.573L595.988 119.571C599.835 119.678 603.182 119.997 606.051 120.51L606.755 116.572L607.458 112.634C604.111 112.037 600.355 111.69 596.21 111.575L596.099 115.573ZM606.755 116.572L606.142 120.525C619.944 122.665 630.961 127.168 639.401 133.859L641.886 130.724L644.371 127.59C634.607 119.851 622.203 114.919 607.367 112.619L606.755 116.572ZM641.886 130.724L639.42 133.874C648.067 140.645 654.407 149.164 658.477 159.497L662.199 158.03L665.921 156.564C661.333 144.919 654.132 135.234 644.352 127.575L641.886 130.724ZM662.199 158.03L658.483 159.51C662.599 169.853 664.693 181.496 664.693 194.494H668.693H672.693C672.693 180.63 670.457 167.964 665.916 156.551L662.199 158.03ZM668.693 194.494H664.693C664.693 213.894 659.881 230.27 650.427 243.82L653.708 246.109L656.988 248.398C667.514 233.31 672.693 215.276 672.693 194.494H668.693ZM653.708 246.109L650.436 243.808C641.214 256.923 626.653 265.258 606.137 268.464L606.755 272.416L607.372 276.368C629.48 272.914 646.221 263.711 656.98 248.41L653.708 246.109ZM606.755 272.416L606.489 268.425L586.509 269.757L586.775 273.748L587.041 277.739L607.021 276.407L606.755 272.416ZM586.775 273.748V269.748H530.831V273.748V277.748H586.775V273.748ZM530.831 273.748H526.831V355H530.831H534.831V273.748H530.831ZM530.831 355V351H485.543V355V359H530.831V355ZM620.741 355L624.34 353.256L577.054 255.687L573.455 257.431L569.855 259.175L617.141 356.744L620.741 355ZM573.455 257.431L574.212 261.359L620.832 252.368L620.075 248.44L619.317 244.512L572.697 253.503L573.455 257.431ZM620.075 248.44L616.479 250.193L668.427 356.753L672.023 355L675.618 353.247L623.67 246.687L620.075 248.44ZM672.023 355V351H620.741V355V359H672.023V355ZM530.831 231.457V235.457H584.777V231.457V227.457H530.831V231.457ZM584.777 231.457V235.457C587.232 235.457 589.893 235.34 592.755 235.111L592.436 231.124L592.117 227.137C589.428 227.352 586.983 227.457 584.777 227.457V231.457ZM592.436 231.124L592.755 235.111C595.756 234.871 598.574 234.387 601.193 233.638L600.095 229.792L598.996 225.946C596.954 226.529 594.666 226.933 592.117 227.137L592.436 231.124ZM600.095 229.792L601.147 233.651C607.84 231.826 613.321 228.693 617.284 224.07L614.247 221.467L611.21 218.864C608.513 222.011 604.559 224.428 599.042 225.933L600.095 229.792ZM614.247 221.467L617.32 224.028C621.009 219.601 623.572 214.686 624.949 209.305L621.074 208.313L617.198 207.322C616.133 211.487 614.145 215.341 611.174 218.906L614.247 221.467ZM621.074 208.313L624.933 209.366C626.343 204.195 627.072 199.233 627.072 194.494H623.072H619.072C619.072 198.413 618.468 202.664 617.215 207.261L621.074 208.313ZM623.072 194.494H627.072C627.072 189.754 626.342 184.839 624.926 179.766L621.074 180.841L617.221 181.916C618.469 186.389 619.072 190.576 619.072 194.494H623.072ZM621.074 180.841L624.954 179.871C623.58 174.374 621.011 169.433 617.284 165.084L614.247 167.688L611.21 170.291C614.143 173.712 616.125 177.54 617.193 181.811L621.074 180.841ZM614.247 167.688L617.32 165.127C613.361 160.376 607.869 157.17 601.147 155.337L600.095 159.196L599.042 163.055C604.53 164.552 608.473 167.007 611.174 170.248L614.247 167.688ZM600.095 159.196L601.194 155.35C598.574 154.601 595.756 154.117 592.755 153.877L592.436 157.864L592.117 161.851C594.666 162.055 596.954 162.459 598.996 163.042L600.095 159.196ZM592.436 157.864L592.755 153.877C589.893 153.648 587.232 153.531 584.777 153.531V157.531V161.531C586.983 161.531 589.428 161.636 592.117 161.851L592.436 157.864ZM584.777 157.531V153.531H530.831V157.531V161.531H584.777V157.531ZM530.831 157.531H526.831V231.457H530.831H534.831V157.531H530.831ZM725.277 355H721.277V359H725.277V355ZM725.277 115.24V111.24H721.277V115.24H725.277ZM765.903 115.24L769.483 113.457L768.379 111.24H765.903V115.24ZM845.157 274.414L841.576 276.197L845.157 283.388L848.737 276.197L845.157 274.414ZM924.411 115.24V111.24H921.934L920.83 113.457L924.411 115.24ZM965.037 115.24H969.037V111.24H965.037V115.24ZM965.037 355V359H969.037V355H965.037ZM922.746 355H918.746V359H922.746V355ZM922.746 211.81H926.746L919.148 210.061L922.746 211.81ZM853.149 355V359H855.652L856.746 356.749L853.149 355ZM837.165 355L833.567 356.749L834.661 359H837.165V355ZM767.568 211.81L771.165 210.061L763.568 211.81H767.568ZM767.568 355V359H771.568V355H767.568ZM725.277 355H729.277V115.24H725.277H721.277V355H725.277ZM725.277 115.24V119.24H765.903V115.24V111.24H725.277V115.24ZM765.903 115.24L762.322 117.023L841.576 276.197L845.157 274.414L848.737 272.631L769.483 113.457L765.903 115.24ZM845.157 274.414L848.737 276.197L927.991 117.023L924.411 115.24L920.83 113.457L841.576 272.631L845.157 274.414ZM924.411 115.24V119.24H965.037V115.24V111.24H924.411V115.24ZM965.037 115.24H961.037V355H965.037H969.037V115.24H965.037ZM965.037 355V351H922.746V355V359H965.037V355ZM922.746 355H926.746V211.81H922.746H918.746V355H922.746ZM922.746 211.81L919.148 210.061L849.551 353.251L853.149 355L856.746 356.749L926.343 213.559L922.746 211.81ZM853.149 355V351H837.165V355V359H853.149V355ZM837.165 355L840.762 353.251L771.165 210.061L767.568 211.81L763.97 213.559L833.567 356.749L837.165 355ZM767.568 211.81H763.568V355H767.568H771.568V211.81H767.568ZM767.568 355V351H725.277V355V359H767.568V355ZM1028.42 355H1024.42V359H1028.42V355ZM1028.42 115.24V111.24H1024.42V115.24H1028.42ZM1184.93 115.24H1188.93V111.24H1184.93V115.24ZM1184.93 157.531V161.531H1188.93V157.531H1184.93ZM1073.71 157.531V153.531H1069.71V157.531H1073.71ZM1073.71 208.813H1069.71V212.813H1073.71V208.813ZM1164.95 208.813H1168.95V204.813H1164.95V208.813ZM1164.95 251.104V255.104H1168.95V251.104H1164.95ZM1073.71 251.104V247.104H1069.71V251.104H1073.71ZM1073.71 312.709H1069.71V316.709H1073.71V312.709ZM1184.93 312.709H1188.93V308.709H1184.93V312.709ZM1184.93 355V359H1188.93V355H1184.93ZM1028.42 355H1032.42V115.24H1028.42H1024.42V355H1028.42ZM1028.42 115.24V119.24H1184.93V115.24V111.24H1028.42V115.24ZM1184.93 115.24H1180.93V157.531H1184.93H1188.93V115.24H1184.93ZM1184.93 157.531V153.531H1073.71V157.531V161.531H1184.93V157.531ZM1073.71 157.531H1069.71V208.813H1073.71H1077.71V157.531H1073.71ZM1073.71 208.813V212.813H1164.95V208.813V204.813H1073.71V208.813ZM1164.95 208.813H1160.95V251.104H1164.95H1168.95V208.813H1164.95ZM1164.95 251.104V247.104H1073.71V251.104V255.104H1164.95V251.104ZM1073.71 251.104H1069.71V312.709H1073.71H1077.71V251.104H1073.71ZM1073.71 312.709V316.709H1184.93V312.709V308.709H1073.71V312.709ZM1184.93 312.709H1180.93V355H1184.93H1188.93V312.709H1184.93ZM1184.93 355V351H1028.42V355V359H1184.93V355ZM1272.2 344.344L1270.14 347.77L1270.15 347.776L1272.2 344.344ZM1232.08 300.554L1228.49 302.335L1228.5 302.343L1228.5 302.352L1232.08 300.554ZM1232.08 169.685L1228.5 167.888L1228.5 167.897L1228.49 167.905L1232.08 169.685ZM1272.2 125.896L1270.15 122.464L1270.14 122.47L1272.2 125.896ZM1396.25 125.896L1394.18 129.322L1394.19 129.328L1396.25 125.896ZM1436.37 169.685L1432.79 171.466L1432.79 171.474L1432.8 171.483L1436.37 169.685ZM1436.37 300.554L1432.8 298.757L1432.79 298.766L1432.79 298.774L1436.37 300.554ZM1396.25 344.344L1394.19 340.912L1394.18 340.918L1396.25 344.344ZM1334.31 317.371L1334.25 321.371L1334.31 317.371ZM1372.27 307.547L1374.5 310.87L1374.5 310.87L1372.27 307.547ZM1394.91 278.743L1391.21 277.223L1391.21 277.237L1391.2 277.252L1394.91 278.743ZM1394.91 191.83L1391.21 193.345L1391.22 193.359L1391.22 193.373L1394.91 191.83ZM1372.27 163.358L1374.5 160.036L1374.5 160.036L1372.27 163.358ZM1334.31 152.869L1334.37 148.869L1334.37 148.869L1334.31 152.869ZM1273.54 191.497L1269.84 189.977L1269.83 189.991L1269.82 190.006L1273.54 191.497ZM1273.54 278.41L1269.83 279.925L1269.84 279.939L1269.84 279.953L1273.54 278.41ZM1296.35 306.881L1294.12 310.204L1294.12 310.204L1296.35 306.881ZM1334.31 359.995V355.995C1310.92 355.995 1290.96 350.912 1274.26 340.912L1272.2 344.344L1270.15 347.776C1288.3 358.644 1309.74 363.995 1334.31 363.995V359.995ZM1272.2 344.344L1274.27 340.918C1257.62 330.889 1244.76 316.869 1235.65 298.757L1232.08 300.554L1228.5 302.352C1238.26 321.758 1252.15 336.931 1270.14 347.77L1272.2 344.344ZM1232.08 300.554L1235.66 298.774C1226.66 280.663 1222.09 259.481 1222.09 235.12H1218.09H1214.09C1214.09 260.487 1218.85 282.928 1228.49 302.335L1232.08 300.554ZM1218.09 235.12H1222.09C1222.09 210.759 1226.66 189.577 1235.66 171.466L1232.08 169.685L1228.49 167.905C1218.85 187.312 1214.09 209.753 1214.09 235.12H1218.09ZM1232.08 169.685L1235.65 171.483C1244.76 153.371 1257.62 139.351 1274.27 129.322L1272.2 125.896L1270.14 122.47C1252.15 133.309 1238.26 148.482 1228.5 167.888L1232.08 169.685ZM1272.2 125.896L1274.26 129.328C1290.96 119.328 1310.92 114.245 1334.31 114.245V110.245V106.245C1309.74 106.245 1288.3 111.596 1270.15 122.464L1272.2 125.896ZM1334.31 110.245V114.245C1357.69 114.245 1377.6 119.328 1394.18 129.322L1396.25 125.896L1398.31 122.47C1380.26 111.596 1358.87 106.245 1334.31 106.245V110.245ZM1396.25 125.896L1394.19 129.328C1410.94 139.356 1423.8 153.369 1432.79 171.466L1436.37 169.685L1439.95 167.905C1430.3 148.484 1416.41 133.304 1398.3 122.464L1396.25 125.896ZM1436.37 169.685L1432.8 171.483C1441.91 189.59 1446.52 210.766 1446.52 235.12H1450.52H1454.52C1454.52 209.746 1449.71 187.299 1439.95 167.888L1436.37 169.685ZM1450.52 235.12H1446.52C1446.52 259.474 1441.91 280.65 1432.8 298.757L1436.37 300.554L1439.95 302.352C1449.71 282.941 1454.52 260.494 1454.52 235.12H1450.52ZM1436.37 300.554L1432.79 298.774C1423.8 316.871 1410.94 330.884 1394.19 340.912L1396.25 344.344L1398.3 347.776C1416.41 336.936 1430.3 321.756 1439.95 302.335L1436.37 300.554ZM1396.25 344.344L1394.18 340.918C1377.6 350.912 1357.69 355.995 1334.31 355.995V359.995V363.995C1358.87 363.995 1380.26 358.644 1398.31 347.77L1396.25 344.344ZM1334.31 317.371L1334.25 321.371C1350.06 321.601 1363.57 318.196 1374.5 310.87L1372.27 307.547L1370.04 304.225C1360.77 310.441 1348.96 313.585 1334.37 313.371L1334.31 317.371ZM1372.27 307.547L1374.5 310.87C1385.33 303.606 1393.36 293.333 1398.63 280.234L1394.91 278.743L1391.2 277.252C1386.47 289.017 1379.41 297.947 1370.04 304.225L1372.27 307.547ZM1394.91 278.743L1398.61 280.263C1403.96 267.248 1406.57 252.171 1406.57 235.12H1402.57H1398.57C1398.57 251.369 1396.08 265.374 1391.21 277.223L1394.91 278.743ZM1402.57 235.12H1406.57C1406.57 218.072 1403.96 203.094 1398.6 190.287L1394.91 191.83L1391.22 193.373C1396.08 204.986 1398.57 218.868 1398.57 235.12H1402.57ZM1394.91 191.83L1398.62 190.315C1393.35 177.435 1385.31 167.287 1374.5 160.036L1372.27 163.358L1370.04 166.681C1379.43 172.972 1386.49 181.805 1391.21 193.345L1394.91 191.83ZM1372.27 163.358L1374.5 160.036C1363.61 152.738 1350.15 149.1 1334.37 148.869L1334.31 152.869L1334.25 156.869C1348.88 157.082 1360.73 160.437 1370.04 166.681L1372.27 163.358ZM1334.31 152.869L1334.37 148.869C1318.55 148.639 1305.05 152.044 1294.12 159.37L1296.35 162.692L1298.57 166.015C1307.85 159.799 1319.65 156.655 1334.25 156.869L1334.31 152.869ZM1296.35 162.692L1294.12 159.37C1283.29 166.629 1275.21 176.892 1269.84 189.977L1273.54 191.497L1277.24 193.017C1282.07 181.238 1289.2 172.298 1298.57 166.015L1296.35 162.692ZM1273.54 191.497L1269.82 190.006C1264.6 203.012 1262.04 218.079 1262.04 235.12H1266.04H1270.04C1270.04 218.861 1272.48 204.846 1277.25 192.988L1273.54 191.497ZM1266.04 235.12H1262.04C1262.04 252.158 1264.6 267.126 1269.83 279.925L1273.54 278.41L1277.24 276.895C1272.48 265.274 1270.04 251.382 1270.04 235.12H1266.04ZM1273.54 278.41L1269.84 279.953C1275.23 292.82 1283.31 302.958 1294.12 310.204L1296.35 306.881L1298.57 303.559C1289.18 297.263 1282.06 288.42 1277.23 276.867L1273.54 278.41ZM1296.35 306.881L1294.12 310.204C1305.01 317.502 1318.46 321.14 1334.25 321.371L1334.31 317.371L1334.37 313.371C1319.74 313.158 1307.89 309.803 1298.57 303.559L1296.35 306.881ZM1500.41 355H1496.41V359H1500.41V355ZM1500.41 115.24V111.24H1496.41V115.24H1500.41ZM1546.37 115.24L1549.72 113.055L1548.53 111.24H1546.37V115.24ZM1650.6 275.08L1647.24 277.265L1654.6 288.537V275.08H1650.6ZM1650.6 115.24V111.24H1646.6V115.24H1650.6ZM1696.55 115.24H1700.55V111.24H1696.55V115.24ZM1696.55 355V359H1700.55V355H1696.55ZM1650.6 355L1647.24 357.185L1648.43 359H1650.6V355ZM1546.37 195.16L1549.72 192.975L1542.37 181.703V195.16H1546.37ZM1546.37 355V359H1550.37V355H1546.37ZM1500.41 355H1504.41V115.24H1500.41H1496.41V355H1500.41ZM1500.41 115.24V119.24H1546.37V115.24V111.24H1500.41V115.24ZM1546.37 115.24L1543.02 117.425L1647.24 277.265L1650.6 275.08L1653.95 272.895L1549.72 113.055L1546.37 115.24ZM1650.6 275.08H1654.6V115.24H1650.6H1646.6V275.08H1650.6ZM1650.6 115.24V119.24H1696.55V115.24V111.24H1650.6V115.24ZM1696.55 115.24H1692.55V355H1696.55H1700.55V115.24H1696.55ZM1696.55 355V351H1650.6V355V359H1696.55V355ZM1650.6 355L1653.95 352.815L1549.72 192.975L1546.37 195.16L1543.02 197.345L1647.24 357.185L1650.6 355ZM1546.37 195.16H1542.37V355H1546.37H1550.37V195.16H1546.37ZM1546.37 355V351H1500.41V355V359H1546.37V355Z" fill="#281101" mask="url(#path-1-outside-1_131_46)"/>
<path d="M193.44 99.5312L456.566 330.359" stroke="#FBF9ED" stroke-width="22"/>
<line x1="1153.01" y1="61.5257" x2="1559.01" y2="397.526" stroke="#FBF9ED" stroke-width="22"/>
</svg>
