<svg width="156" height="156" viewBox="0 0 156 156" fill="none" xmlns="http://www.w3.org/2000/svg">
<path d="M51.9172 78.1096L73.0993 73.2705L77.9385 52.0884L82.7776 73.2705L103.96 78.1096L82.7776 82.9488L77.9385 104.131L73.0993 82.9488L51.9172 78.1096Z" fill="white"/>
<path d="M125.905 20.2791L126.756 21.0669L124.333 27.5466L124.404 27.6123L130.676 24.6924L131.527 25.4802L126.246 31.1894L125.576 30.5693L129.566 26.2559L129.511 26.2048L123.746 28.877L123.115 28.2934L125.331 22.3387L125.284 22.2949L121.294 26.6083L120.623 25.9883L125.905 20.2791ZM127.267 32.2716L133.182 27.2209L136.244 30.807L135.591 31.3651L133.156 28.5142L131.179 30.2024L133.453 32.8654L132.808 33.4165L130.534 30.7535L128.549 32.4487L131.018 35.3404L130.365 35.8985L127.267 32.2716ZM136.471 32.4827L137.167 31.9784L140.61 36.7272L139.914 37.2315L138.483 35.2572L132.881 39.3174L132.308 38.526L137.909 34.4658L136.471 32.4827ZM134.507 41.7577L133.996 40.887L142.144 39.4036L142.661 40.2837L137.396 46.6765L136.879 45.7965L138.377 44.0199L136.794 41.3243L134.507 41.7577ZM137.673 41.1447L138.957 43.3308L141.332 40.5032L141.3 40.4476L137.673 41.1447ZM139.341 51.0712L145.797 46.2415L146.155 47.151L140.893 50.9676L140.921 51.0375L147.38 50.2593L147.778 51.2688L142.527 55.1153L142.551 55.1753L149.002 54.3771L149.361 55.2866L141.345 56.1584L140.979 55.2289L146.083 51.3936L146.06 51.3336L139.707 52.0007L139.341 51.0712ZM142.179 58.669L141.924 57.692L150.168 58.4809L150.426 59.4683L143.621 64.188L143.363 63.2006L145.288 61.8985L144.498 58.8739L142.179 58.669ZM145.392 58.9401L146.033 61.393L149.088 59.3182L149.072 59.2558L145.392 58.9401ZM151.297 63.3781L145.234 66.6935L145.248 66.7783L152.055 67.9891L152.221 68.9961L144.085 67.4485L143.919 66.4415L151.132 62.3711L151.297 63.3781ZM144.596 71.0845L152.357 70.5901L152.657 75.2963L151.8 75.351L151.561 71.6095L148.967 71.7748L149.19 75.2697L148.343 75.3236L148.12 71.8288L145.515 71.9947L145.757 75.7897L144.899 75.8444L144.596 71.0845ZM150.826 94.3113L150.512 95.4283L143.64 96.2226L143.614 96.3156L149.07 100.569L148.757 101.686L141.269 99.5849L141.515 98.7058L147.173 100.293L147.193 100.221L142.188 96.3062L142.421 95.4788L148.731 94.7389L148.748 94.6768L143.091 93.0896L143.338 92.2105L150.826 94.3113ZM140.773 100.989L147.976 103.925L146.196 108.292L145.4 107.967L146.815 104.496L144.407 103.515L143.086 106.758L142.3 106.437L143.622 103.194L141.204 102.209L139.769 105.731L138.973 105.406L140.773 100.989ZM144.79 109.299L145.555 109.691L142.884 114.913L142.119 114.521L143.229 112.35L137.07 109.2L137.515 108.33L143.675 111.48L144.79 109.299ZM135.636 111.758L136.178 110.906L141.216 117.479L140.669 118.34L132.578 116.573L133.125 115.712L135.39 116.234L137.066 113.595L135.636 111.758ZM137.627 114.295L136.267 116.435L139.868 117.258L139.902 117.204L137.627 114.295ZM129.571 120.319L136.815 123.862L136.169 124.595L130.372 121.654L130.322 121.71L133.961 127.103L133.244 127.917L127.426 125L127.384 125.048L131.037 130.425L130.391 131.159L125.959 124.424L126.619 123.674L132.36 126.467L132.403 126.418L128.911 121.069L129.571 120.319ZM124.11 126.318L124.859 125.64L127.968 133.316L127.212 134.001L119.882 130.146L120.638 129.462L122.682 130.567L125 128.469L124.11 126.318ZM125.354 129.293L123.475 130.994L126.727 132.745L126.774 132.702L125.354 129.293ZM124.104 136.603L118.385 132.724L118.316 132.775L120.348 139.383L119.527 139.99L117.188 132.046L118.009 131.439L124.924 135.996L124.104 136.603ZM114.189 134.167L118.215 140.821L114.181 143.262L113.736 142.527L116.943 140.586L115.597 138.362L112.601 140.175L112.162 139.449L115.158 137.636L113.807 135.402L110.553 137.371L110.108 136.636L114.189 134.167ZM99.102 149.566L97.9746 149.839L93.9168 144.236L93.8229 144.259L92.7865 151.099L91.6591 151.373L89.824 143.815L90.7113 143.6L92.0978 149.31L92.1709 149.292L93.1331 143.012L93.9682 142.809L97.7034 147.949L97.7661 147.933L96.3796 142.223L97.2669 142.008L99.102 149.566ZM88.3581 144.072L89.3357 151.788L84.6573 152.381L84.5493 151.528L88.2686 151.057L87.9418 148.478L84.4676 148.918L84.3609 148.076L87.8351 147.636L87.507 145.046L83.7344 145.524L83.6264 144.672L88.3581 144.072ZM83.115 151.651L83.1527 152.509L77.2931 152.767L77.2554 151.908L79.6915 151.801L79.3878 144.89L80.3644 144.847L80.6681 151.758L83.115 151.651ZM76.4545 144.905L77.463 144.956L74.2246 152.579L73.2054 152.527L70.7578 144.615L71.777 144.667L72.438 146.895L75.56 147.054L76.4545 144.905ZM75.2272 147.886L72.6953 147.757L73.7521 151.296L73.8165 151.3L75.2272 147.886ZM66.0173 143.82L66.4871 151.869L65.5307 151.667L65.2478 145.172L65.1742 145.157L62.2624 150.975L61.2009 150.75L60.8865 144.249L60.8234 144.235L57.9326 150.058L56.9762 149.855L60.6681 142.687L61.6454 142.894L62.0309 149.268L62.0939 149.281L65.0399 143.613L66.0173 143.82ZM58.1117 142.006L59.0693 142.326L53.9024 148.799L52.9346 148.475L52.7022 140.196L53.67 140.52L53.7083 142.844L56.6728 143.835L58.1117 142.006ZM56.1286 144.548L53.7243 143.744L53.7918 147.436L53.8529 147.457L56.1286 144.548ZM49.1495 147.045L49.7238 140.158L49.6453 140.123L44.8841 145.136L43.9525 144.719L49.7271 138.783L50.6587 139.2L50.081 147.461L49.1495 147.045ZM46.4096 137.209L42.5699 143.972L38.4689 141.644L38.8931 140.896L42.1534 142.747L43.4368 140.487L40.3914 138.758L40.8104 138.02L43.8558 139.749L45.1445 137.479L41.8375 135.601L42.2618 134.854L46.4096 137.209ZM25.613 131.631L24.8185 130.785L27.6888 124.491L27.6226 124.42L21.1622 126.895L20.3677 126.049L26.035 120.723L26.6603 121.389L22.3785 125.413L22.43 125.467L28.3671 123.205L28.9556 123.831L26.329 129.616L26.3732 129.663L30.655 125.639L31.2803 126.304L25.613 131.631ZM25.0879 119.574L18.8573 124.229L16.0349 120.451L16.7234 119.937L18.9671 122.94L21.0498 121.384L18.9539 118.579L19.6337 118.071L21.7296 120.876L23.8209 119.314L21.5449 116.268L22.2334 115.753L25.0879 119.574ZM15.8861 118.706L15.1546 119.157L12.0756 114.165L12.807 113.714L14.0871 115.79L19.9752 112.158L20.4884 112.99L14.6003 116.622L15.8861 118.706ZM18.5283 109.606L18.979 110.51L10.7488 111.434L10.2933 110.521L15.9819 104.502L16.4374 105.415L14.8218 107.086L16.2173 109.883L18.5283 109.606ZM15.3284 110.002L14.1967 107.734L11.6337 110.393L11.6625 110.45L15.3284 110.002ZM14.3433 99.9858L7.55878 104.343L7.26627 103.41L12.7874 99.9784L12.7649 99.9067L6.2666 100.222L5.94195 99.1868L11.4534 95.7247L11.4341 95.6632L4.94227 95.999L4.64977 95.0663L12.7072 94.7686L13.0061 95.7218L7.64077 99.1832L7.66006 99.2447L14.0444 99.0326L14.3433 99.9858ZM12.0473 92.2069L12.2379 93.1985L4.063 91.8711L3.87036 90.8689L10.9705 86.6053L11.1632 87.6075L9.15715 88.7807L9.74723 91.8505L12.0473 92.2069ZM8.8591 91.7258L8.38055 89.2362L5.19585 91.1064L5.20801 91.1697L8.8591 91.7258ZM3.26012 86.867L9.54321 83.9904L9.53533 83.9048L2.83142 82.2139L2.7378 81.1977L10.7435 83.3188L10.8371 84.335L3.35374 87.8832L3.26012 86.867ZM10.4864 79.6548L2.70911 79.6427L2.71646 74.9269L3.57583 74.9282L3.56999 78.6772L6.1696 78.6813L6.17505 75.1793L7.02369 75.1807L7.01823 78.6826L9.62858 78.6867L9.6345 74.8839L10.4939 74.8853L10.4864 79.6548ZM5.12404 58.7884L5.47161 57.6815L12.3651 57.0989L12.3941 57.0067L7.07112 52.5879L7.4187 51.481L14.8388 53.8111L14.5652 54.6822L8.95917 52.9218L8.93664 52.9935L13.8186 57.0599L13.5611 57.8798L7.23093 58.4254L7.21162 58.4869L12.8177 60.2473L12.5441 61.1184L5.12404 58.7884ZM15.3758 52.4239L8.26511 49.2734L10.1754 44.9619L10.9611 45.31L9.44246 48.7376L11.8192 49.7907L13.2378 46.5889L14.0137 46.9327L12.5951 50.1345L14.9817 51.1919L16.5221 47.7151L17.3078 48.0632L15.3758 52.4239ZM11.606 44.0048L10.8524 43.5917L13.6721 38.4487L14.4257 38.8618L13.2534 41L19.3195 44.3258L18.8495 45.183L12.7834 41.8572L11.606 44.0048ZM20.8304 41.8117L20.2617 42.6461L15.4384 35.9136L16.0131 35.0704L24.043 37.0983L23.4682 37.9416L21.2218 37.3465L19.4612 39.9295L20.8304 41.8117ZM18.9233 39.2119L20.3512 37.1171L16.7794 36.1777L16.7431 36.2309L18.9233 39.2119ZM27.171 33.4501L20.0479 29.6722L20.7175 28.96L26.4148 32.0903L26.4663 32.0355L23.006 26.5261L23.7492 25.7357L29.4685 28.8425L29.5127 28.7955L26.0377 23.3017L26.7073 22.5896L30.9164 29.4667L30.2321 30.1945L24.5851 27.2146L24.541 27.2616L27.8553 32.7223L27.171 33.4501ZM32.8264 27.6338L32.056 28.2866L29.2001 20.5127L29.9787 19.8529L37.1783 23.9464L36.3997 24.6061L34.3929 23.4342L32.008 25.455L32.8264 27.6338ZM31.6807 24.62L33.6149 22.9811L30.4224 21.1243L30.3732 21.166L31.6807 24.62ZM33.1459 17.3667L38.7475 21.4132L38.8181 21.3641L36.9821 14.6985L37.8199 14.1158L39.9238 22.1261L39.086 22.7088L32.3081 17.9494L33.1459 17.3667ZM42.9856 20.0981L39.1864 13.3119L43.3012 11.0082L43.721 11.7581L40.4498 13.5895L41.7197 15.8578L44.7754 14.1471L45.1899 14.8876L42.1343 16.5983L43.4094 18.876L46.7275 17.0184L47.1474 17.7682L42.9856 20.0981ZM58.5054 5.19377L59.6394 4.94913L63.5517 10.6548L63.6462 10.6344L64.8582 3.82329L65.9923 3.57864L67.6324 11.1811L66.7398 11.3736L65.5007 5.6298L65.4272 5.64566L64.3037 11.8992L63.4636 12.0804L59.8619 6.84625L59.7989 6.85984L61.038 12.6037L60.1454 12.7962L58.5054 5.19377ZM68.6749 11.0521L67.8738 3.31611L72.5646 2.83038L72.6531 3.68518L68.924 4.07133L69.1917 6.65712L72.6751 6.29641L72.7625 7.14053L69.2792 7.50124L69.548 10.0977L73.3305 9.70602L73.419 10.5608L68.6749 11.0521ZM73.6169 3.63903L73.5943 2.77995L79.4575 2.62527L79.4801 3.48435L77.0425 3.54866L77.2249 10.4642L76.2477 10.49L76.0653 3.57444L73.6169 3.63903ZM79.7187 10.5017L78.7107 10.4416L82.0153 2.84754L83.034 2.90829L85.4127 10.8413L84.394 10.7806L83.7524 8.54699L80.6319 8.3609L79.7187 10.5017ZM80.972 7.53104L83.5026 7.68196L82.4767 4.13412L82.4123 4.13028L80.972 7.53104ZM89.2797 11.5337L88.7691 3.48695L89.7265 3.68459L90.0423 10.1775L90.116 10.1927L92.9983 4.36004L94.0609 4.5794L94.4083 11.0788L94.4714 11.0918L97.3327 5.25486L98.29 5.4525L94.6346 12.6392L93.6562 12.4372L93.2385 6.06589L93.1753 6.05286L90.2581 11.7357L89.2797 11.5337ZM96.7675 13.2119L95.8064 12.9024L100.9 6.37217L101.872 6.68502L102.197 14.9606L101.226 14.6477L101.161 12.3247L98.1857 11.3664L96.7675 13.2119ZM98.722 10.6476L101.135 11.4247L101.026 7.73315L100.965 7.71339L98.722 10.6476ZM105.203 7.90617L104.76 14.8022L104.839 14.8358L109.504 9.73345L110.443 10.1325L104.782 16.1774L103.843 15.7783L104.264 7.50711L105.203 7.90617ZM107.727 17.5138L111.409 10.6633L115.563 12.8959L115.156 13.6529L111.854 11.878L110.623 14.1678L113.708 15.8257L113.306 16.5732L110.221 14.9153L108.985 17.2145L112.335 19.0149L111.928 19.7719L107.727 17.5138Z" fill="white"/>
<circle cx="77.3558" cy="78.0245" r="49.0372" stroke="#A2A2A2"/>
<circle cx="105.343" cy="143.343" r="2.34298" fill="white"/>
<circle cx="149.343" cy="84.343" r="2.34298" fill="white"/>
<circle cx="52.343" cy="11.343" r="2.34298" fill="white"/>
<circle cx="118.345" cy="19.343" r="2.34298" fill="white"/>
<circle cx="6.34298" cy="68.343" r="2.34298" fill="white"/>
<circle cx="33.3453" cy="135.343" r="2.34298" fill="white"/>
</svg>
